<?xml version="1.0" standalone="no"?><!DOCTYPE svg PUBLIC "-//W3C//DTD SVG 1.1//EN" "http://www.w3.org/Graphics/SVG/1.1/DTD/svg11.dtd"><svg t="1560680753300" class="icon" style="" viewBox="0 0 1024 1024" version="1.1" xmlns="http://www.w3.org/2000/svg" p-id="4089" xmlns:xlink="http://www.w3.org/1999/xlink" width="200" height="200"><defs><style type="text/css"></style></defs><path d="M990.656 355.84c-3.712-25.856-17.472-45.056-41.344-56.192-21.568-10.112-44.672-12.672-68.032-9.92-26.816 3.2-47.168 16.896-57.728 42.368-9.088 21.696-10.24 44.48-5.952 67.52 2.816 14.72 9.856 27.328 22.272 36.416 0.64 0.448 1.024 1.088 1.6 1.728-45.248 49.408-90.24 98.56-136.064 148.544-14.272-89.792-28.288-178.56-42.368-267.008 7.68-3.328 15.104-5.952 22.016-9.536 32.32-16.768 52.416-41.728 51.392-79.744-0.896-30.656-14.592-54.08-43.008-66.944-27.52-12.416-56.128-13.824-84.864-4.16C583.04 167.36 565.824 184.32 559.488 210.816 554.304 232.704 557.248 253.888 566.912 274.048c5.632 11.648 14.08 20.736 25.536 26.816 3.008 1.536 6.144 2.816 9.344 4.288C567.68 373.952 533.76 442.176 499.328 511.488c-25.6-69.44-50.88-137.664-76.096-205.888C440.128 297.408 444.16 295.104 449.728 286.912c16.704-24.384 21.12-51.2 12.928-79.36-7.68-26.432-25.024-44.288-52.096-51.2-26.816-6.72-53.376-4.928-78.848 5.76-23.68 9.984-38.4 27.776-42.112 53.568C286.336 238.08 291.392 259.072 301.12 279.04c7.488 15.36 18.56 27.712 34.56 34.432 7.744 3.264 16.064 4.992 24.96 7.68C341.696 408.448 322.624 496.192 303.36 585.152c-40.128-49.792-79.36-98.56-118.08-146.56 4.608-5.376 9.664-9.792 12.992-15.296 12.096-20.096 15.296-41.92 9.408-64.704-7.296-28.16-22.528-50.304-50.048-62.08C138.816 288.448 118.848 287.104 99.008 290.304 68.8 295.168 47.552 311.616 37.76 341.312 31.488 360.32 30.656 379.968 33.856 399.424c4.992 30.08 20.864 52.032 50.496 62.528C99.392 467.2 115.008 468.736 130.752 467.584 136.192 467.2 137.792 468.992 139.328 473.728c23.552 76.352 47.36 152.64 70.976 228.992 1.344 4.352 3.072 5.696 7.616 5.696 195.008-0.128 389.952-0.128 584.96 0 4.8 0 6.592-1.408 8-5.952 24.064-77.504 48.32-155.008 72.448-232.512 1.344-4.096 3.008-4.8 7.232-4.608 11.072 0.448 22.4 1.152 33.28-0.448 25.152-3.712 45.184-15.936 56.704-39.424C991.232 403.456 994.048 379.904 990.656 355.84z" p-id="4090"></path><path d="M212.544 871.616c199.232 0 398.144 0 597.056 0 0-44.48 0-88.64 0-132.864-199.168 0-398.016 0-597.056 0C212.544 783.104 212.544 827.328 212.544 871.616z" p-id="4091"></path></svg>