<?xml version="1.0" standalone="no"?><!DOCTYPE svg PUBLIC "-//W3C//DTD SVG 1.1//EN" "http://www.w3.org/Graphics/SVG/1.1/DTD/svg11.dtd"><svg t="1560683749555" class="icon" style="" viewBox="0 0 1024 1024" version="1.1" xmlns="http://www.w3.org/2000/svg" p-id="5628" xmlns:xlink="http://www.w3.org/1999/xlink" width="200" height="200"><defs><style type="text/css"></style></defs><path d="M381.468954 70.62069C381.332127 70.62069 381.351724 381.468972 381.351724 381.468972 381.351724 381.33218 70.503459 381.351724 70.503459 381.351724 70.640287 381.351724 70.62069 70.503442 70.62069 70.503442 70.62069 70.640234 381.468954 70.62069 381.468954 70.62069ZM0 381.468972C0 420.290242 31.592695 451.972414 70.503459 451.972414L381.468954 451.972414C420.290207 451.972414 451.972414 420.379666 451.972414 381.468972L451.972414 70.503442C451.972414 31.682172 420.379719 0 381.468954 0L70.503459 0C31.682207 0 0 31.592748 0 70.503442L0 381.468972ZM953.496541 70.62069C953.359713 70.62069 953.37931 381.468972 953.37931 381.468972 953.37931 381.33218 642.531046 381.351724 642.531046 381.351724 642.667873 381.351724 642.648276 70.503442 642.648276 70.503442 642.648276 70.640234 953.496541 70.62069 953.496541 70.62069ZM572.027586 381.468972C572.027586 420.290242 603.620281 451.972414 642.531046 451.972414L953.496541 451.972414C992.317793 451.972414 1024 420.379666 1024 381.468972L1024 70.503442C1024 31.682172 992.407305 0 953.496541 0L642.531046 0C603.709793 0 572.027586 31.592748 572.027586 70.503442L572.027586 381.468972ZM988.689655 741.517241C1008.191029 741.517241 1024 725.708253 1024 706.206897 1024 686.70554 1008.191029 670.896552 988.689655 670.896552L35.310345 670.896552C15.808971 670.896552 0 686.70554 0 706.206897 0 725.708253 15.808971 741.517241 35.310345 741.517241L988.689655 741.517241ZM35.310345 953.37931C15.808971 953.37931 0 969.188299 0 988.689655 0 1008.191011 15.808971 1024 35.310345 1024L988.689655 1024C1008.191029 1024 1024 1008.191011 1024 988.689655 1024 969.188299 1008.191029 953.37931 988.689655 953.37931L35.310345 953.37931Z" p-id="5629"></path></svg>