<?xml version="1.0" standalone="no"?><!DOCTYPE svg PUBLIC "-//W3C//DTD SVG 1.1//EN" "http://www.w3.org/Graphics/SVG/1.1/DTD/svg11.dtd"><svg t="1561537049874" class="icon" viewBox="0 0 1024 1024" version="1.1" xmlns="http://www.w3.org/2000/svg" p-id="41122" xmlns:xlink="http://www.w3.org/1999/xlink" width="200" height="200"><defs><style type="text/css"></style></defs><path d="M214 687c-55.2 0-100 44.8-100 100s44.8 100 100 100 100-44.8 100-100-44.8-100-100-100z m0 150c-27.6 0-50-22.4-50-50s22.4-50 50-50 50 22.4 50 50-22.4 50-50 50z" p-id="41123"></path><path d="M239 729V25c0-13.8-11.2-25-25-25s-25 11.2-25 25v704h50zM189 846v153c0 13.8 11.2 25 25 25s25-11.2 25-25V846h-50z" p-id="41124"></path><path d="M517 444c-55.2 0-100 44.8-100 100s44.8 100 100 100 100-44.8 100-100-44.8-100-100-100z m0 150c-27.6 0-50-22.4-50-50s22.4-50 50-50 50 22.4 50 50-22.4 50-50 50z" p-id="41125"></path><path d="M542 466V25c0-13.8-11.2-25-25-25s-25 11.2-25 25v441h50zM492 617v382c0 13.8 11.2 25 25 25s25-11.2 25-25V617h-50z" p-id="41126"></path><path d="M910 237c0-55.2-44.8-100-100-100s-100 44.8-100 100 44.8 100 100 100 100-44.8 100-100z m-50 0c0 27.6-22.4 50-50 50s-50-22.4-50-50 22.4-50 50-50 50 22.4 50 50z" p-id="41127"></path><path d="M835 295v704c0 13.8-11.2 25-25 25s-25-11.2-25-25V295h50zM785 178V25c0-13.8 11.2-25 25-25s25 11.2 25 25v153h-50z" p-id="41128"></path></svg>