<?xml version="1.0" standalone="no"?><!DOCTYPE svg PUBLIC "-//W3C//DTD SVG 1.1//EN" "http://www.w3.org/Graphics/SVG/1.1/DTD/svg11.dtd"><svg t="1561515620855" class="icon" viewBox="0 0 1344 1024" version="1.1" xmlns="http://www.w3.org/2000/svg" p-id="7609" xmlns:xlink="http://www.w3.org/1999/xlink" width="262.5" height="200"><defs><style type="text/css"></style></defs><path d="M1316.747583 321.907981a31.699531 31.699531 0 0 0 27.252582-31.414084V96A96 96 0 0 0 1248.000165 0H96.000165A96 96 0 0 0 0.000165 96v194.493897a31.699531 31.699531 0 0 0 27.237559 31.414084 192.030047 192.030047 0 0 1 0 380.093897A31.684507 31.684507 0 0 0 0.000165 733.476056V928a96 96 0 0 0 96 96h1152a96 96 0 0 0 96-96V733.476056a31.684507 31.684507 0 0 0-27.252582-31.414084 192.030047 192.030047 0 0 1 0-380.093897zM352.000165 928h-64V768h64z m0-224h-64V544h64z m0-224h-64V320h64z m0-224h-64V96h64zM960.000165 518.625352H800.000165v64H960.000165v64H800.000165v128h-64v-128H576.000165v-64h160v-64H576.000165v-64h160v-10.98216l-13.265727-13.265727-135.767137-135.752113 45.220658-45.265728 135.767136 135.767137 135.767136-135.767137 45.250704 45.250705-135.722066 135.767136-13.250704 13.250704v10.98216H960.000165z" p-id="7610"></path></svg>