<?xml version="1.0" standalone="no"?><!DOCTYPE svg PUBLIC "-//W3C//DTD SVG 1.1//EN" "http://www.w3.org/Graphics/SVG/1.1/DTD/svg11.dtd"><svg t="1561518321880" class="icon" viewBox="0 0 1024 1024" version="1.1" xmlns="http://www.w3.org/2000/svg" p-id="10879" xmlns:xlink="http://www.w3.org/1999/xlink" width="200" height="200"><defs><style type="text/css"></style></defs><path d="M985.6 627.2l-128 0c-51.2-89.6-147.2-204.8-320-211.2L537.6 275.2l83.2 0c12.8 0 25.6-12.8 25.6-25.6L646.4 44.8c0-12.8-12.8-25.6-25.6-25.6L409.6 19.2C396.8 19.2 384 25.6 384 44.8l0 204.8c0 12.8 12.8 25.6 25.6 25.6l83.2 0 0 140.8c-179.2 6.4-275.2 115.2-320 211.2l-128 0c-12.8 0-25.6 12.8-25.6 25.6l0 204.8c0 12.8 12.8 25.6 25.6 25.6l204.8 0c12.8 0 25.6-12.8 25.6-25.6l0-204.8c0-12.8-12.8-25.6-25.6-25.6L211.2 627.2c44.8-76.8 128-166.4 281.6-172.8l0 172.8L409.6 627.2C396.8 627.2 384 633.6 384 646.4l0 204.8c0 12.8 12.8 25.6 25.6 25.6l204.8 0c12.8 0 25.6-12.8 25.6-25.6l0-204.8c0-12.8-12.8-25.6-25.6-25.6L531.2 620.8 531.2 454.4c147.2 6.4 236.8 89.6 281.6 172.8l-32 0c-12.8 0-25.6 12.8-25.6 25.6l0 204.8c0 12.8 12.8 25.6 25.6 25.6l204.8 0c12.8 0 25.6-12.8 25.6-25.6l0-204.8C1011.2 633.6 998.4 627.2 985.6 627.2z" p-id="10880"></path></svg>