<?xml version="1.0" standalone="no"?><!DOCTYPE svg PUBLIC "-//W3C//DTD SVG 1.1//EN" "http://www.w3.org/Graphics/SVG/1.1/DTD/svg11.dtd"><svg t="1561519040532" class="icon" viewBox="0 0 1024 1024" version="1.1" xmlns="http://www.w3.org/2000/svg" p-id="15269" xmlns:xlink="http://www.w3.org/1999/xlink" width="200" height="200"><defs><style type="text/css"></style></defs><path d="M315.2 321m-67.6 0a67.6 67.6 0 1 0 135.2 0 67.6 67.6 0 1 0-135.2 0Z" p-id="15270"></path><path d="M710.8 321m-67.6 0a67.6 67.6 0 1 0 135.2 0 67.6 67.6 0 1 0-135.2 0Z" p-id="15271"></path><path d="M710.8 705.3m-67.6 0a67.6 67.6 0 1 0 135.2 0 67.6 67.6 0 1 0-135.2 0Z" p-id="15272"></path><path d="M844.5 98.2h-478V186.1c19.7 7.5 37.3 19.2 51.8 34 21.8 22.2 52.4 33.4 83.5 33.4h22.3c31 0 61.7-11.2 83.4-33.4 26.6-27.2 63.8-44 104.8-43.6 75.9 0.8 140 62.9 142.9 138.8 3.2 82.3-62.8 150.3-144.4 150.3-43.4 0-82.4-19.3-109-49.7-14.5-16.7-34.8-27.2-56.9-27.2h-66.4c-20.7 0-39.7 9.9-53 25.7-31.3 36.9-80.6 58-134.3 49.3-61.8-10-110.9-60.8-119.2-122.8-9.3-70 31.8-131.8 91.9-154.8V98.2h-82.4c-49.2 0-89.1 39.9-89.1 89.1v651.9c0 49.2 39.9 89.1 89.1 89.1h225.3l169.7-169.7c-9.3-23.4-12.9-49.8-8.2-77.4 10.3-60.8 59.6-109.7 120.6-118.7 97.3-14.4 180 68.9 164.7 166.3-9.4 59.7-57.1 108.1-116.6 118.8-33.1 6-64.4 0.3-91.1-13.2L552 928.3h292.6c49.2 0 89.1-39.9 89.1-89.1v-652c-0.1-49.2-39.9-89-89.2-89z" p-id="15273"></path></svg>