<?xml version="1.0" standalone="no"?><!DOCTYPE svg PUBLIC "-//W3C//DTD SVG 1.1//EN" "http://www.w3.org/Graphics/SVG/1.1/DTD/svg11.dtd"><svg t="1561519178985" class="icon" viewBox="0 0 1024 1024" version="1.1" xmlns="http://www.w3.org/2000/svg" p-id="15988" xmlns:xlink="http://www.w3.org/1999/xlink" width="200" height="200"><defs><style type="text/css"></style></defs><path d="M797.44 697.984c-172.16-15.36-182.4-93.75744-182.4-93.75744v-78.336c100.54144-39.23456 131.26144-189.184 131.26144-189.184 0-59.648-28.928-61.312-28.928-61.312V178.24256c6.72256-161.92-90.368-124.416-92.09344-124.416-1.60256 0-54.46656-42.624-54.46656-42.624-37.56544-28.99456-121.088 10.24-121.088 10.24h1.792c-1.792 0-3.51744 0-5.248 0.06144-94.52544 2.49856-119.22944 71.49056-119.22944 71.49056l1.72544 178.944c-49.34144 0-42.624 69.888-42.624 69.888 0 76.66688 132.93056 182.33344 132.93056 182.33344 8.50944 100.608-44.288 151.61856-44.288 151.61856s-90.30656 3.38944-192.57856 34.10944c-2.432 0.768-4.79744 1.46944-7.168 2.24256-96.44544 33.024-124.032 127.232-124.032 127.232v92.032l417.47456 1.72544 49.408 90.368 46.01344-92.09856h409.02656v-71.61344c1.72544-105.53856-175.488-161.792-175.488-161.792z m-228.352 218.05056H471.936l-40.89856-95.36 32.32256-187.52h100.54144l40.96 192.64-35.77344 90.24z" p-id="15989"></path></svg>