<?xml version="1.0" standalone="no"?><!DOCTYPE svg PUBLIC "-//W3C//DTD SVG 1.1//EN" "http://www.w3.org/Graphics/SVG/1.1/DTD/svg11.dtd"><svg t="1561515554479" class="icon" viewBox="0 0 1024 1024" version="1.1" xmlns="http://www.w3.org/2000/svg" p-id="6892" xmlns:xlink="http://www.w3.org/1999/xlink" width="200" height="200"><defs><style type="text/css"></style></defs><path d="M921.091724 986.579739 99.014596 986.579739 62.958402 986.579739l0-72.111364 36.056194 0L921.091724 914.468374l36.044938 0 0 72.111364L921.091724 986.579739 921.091724 986.579739zM697.541275 856.777441 697.541275 380.842845c0-24.51637 15.858176-30.280654 36.056194-47.597041 36.055171-28.844955 116.827799-99.511411 116.827799-99.511411l67.772546 37.503149 38.938847-90.864474 0 667.745157 0 8.659217L697.541275 856.777441 697.541275 856.777441zM639.851365 438.532755l0 418.244686-14.423501 0c-76.441996 0-142.778844 1.445932-216.32693 0l0 0-28.844955 0 0-28.845978L380.255978 813.511032 380.255978 438.532755c0 0 85.088934 50.480718 125.462456 47.598065C547.551192 483.236909 639.851365 438.532755 639.851365 438.532755L639.851365 438.532755zM844.649727 171.72613c-10.093892 8.646937-20.199041 14.411221-28.844955 23.069415-87.98182 74.995041-175.952384 151.437038-262.489296 226.433102-23.069415 20.187785-44.714388 23.080671-70.666456 5.764284-59.136865-37.491892-121.145128-70.666456-178.835038-109.605304-33.174564-23.080671-56.255235-20.198018-83.653235 7.211239-24.51637 24.51637-53.361325 44.703131-79.32465 66.337871-18.739806 14.422478-38.938847 23.080671-57.68991 2.88163-18.752086-20.186761-5.764284-37.491892 11.539824-51.91437 43.267433-36.056194 86.534865-70.666456 129.803321-106.72265 21.63474-18.752086 40.374546-17.316387 64.902172-2.89391 73.54911 46.150086 147.108452 89.429799 223.539192 135.567605 93.745081-80.759325 186.0473-161.519674 281.240359-243.725954-14.423501-14.422478-24.517393-24.51637-38.938847-40.385802 66.335824-15.868409 128.356366-31.727609 197.586101-50.478671-18.751063 66.348104-34.620495 124.027781-51.913347 186.0473C880.705921 203.442482 863.40079 189.031261 844.649727 171.72613L844.649727 171.72613zM261.992481 357.762173c54.797024 15.869433 60.573587 46.149063 60.573587 95.194082 1.434675 115.368564 0 287.004643 0 403.821185L62.958402 856.777441 62.958402 526.504342c0-7.212262 17.316387-20.187785 24.51637-25.951045C145.165706 452.956256 204.291314 405.359214 261.992481 357.762173L261.992481 357.762173zM261.992481 357.762173" p-id="6893"></path></svg>