<?xml version="1.0" standalone="no"?><!DOCTYPE svg PUBLIC "-//W3C//DTD SVG 1.1//EN" "http://www.w3.org/Graphics/SVG/1.1/DTD/svg11.dtd"><svg t="1561518145533" class="icon" viewBox="0 0 1024 1024" version="1.1" xmlns="http://www.w3.org/2000/svg" p-id="9130" xmlns:xlink="http://www.w3.org/1999/xlink" width="200" height="200"><defs><style type="text/css"></style></defs><path d="M1007.4 597.1l-50 0c-4.6-16.5-11.1-32.2-19.3-46.8l35.3-35.3c6.5-6.5 6.5-17 0-23.5l-57-57c-3.2-3.2-7.5-4.8-11.7-4.8-4.3 0-8.5 1.6-11.7 4.8l-35.3 35.3c-14.6-8.2-30.3-14.7-46.8-19.3l0-50c0-9.1-7.5-16.6-16.6-16.6l-80.6 0c-9.1 0-16.6 7.5-16.6 16.6l0 50c-16.5 4.6-32.2 11.1-46.8 19.3L615 434.6c-3.2-3.2-7.5-4.8-11.7-4.8s-8.5 1.6-11.7 4.8l-57 57c-6.4 6.5-6.4 17 0 23.5l35.3 35.3c-8.2 14.6-14.7 30.3-19.3 46.8l-50 0c-9.1 0-16.6 7.5-16.6 16.6l0 80.6c0 9.1 7.5 16.6 16.6 16.6l50 0c4.6 16.5 11.1 32.2 19.3 46.8L534.5 793c-6.4 6.5-6.4 17 0 23.5l57 57c3.2 3.2 7.5 4.8 11.7 4.8s8.5-1.6 11.7-4.8l35.3-35.3c14.6 8.2 30.3 14.7 46.8 19.3l0 50c0 9.1 7.5 16.6 16.6 16.6l80.6 0c9.1 0 16.6-7.5 16.6-16.6l0-50c16.5-4.6 32.2-11.1 46.8-19.3l35.3 35.3c3.2 3.2 7.5 4.8 11.7 4.8 4.3 0 8.5-1.6 11.7-4.8l57-57c6.5-6.5 6.5-17 0-23.5l-35.3-35.3c8.2-14.6 14.7-30.3 19.3-46.8l50 0c9.1 0 16.6-7.5 16.6-16.6l0-80.6C1024 604.6 1016.5 597.1 1007.4 597.1zM895.8 693.8c-3.2 11.5-7.7 22.5-13.4 32.6l-20.3 35.9-35.9 20.3c-10.1 5.7-21 10.2-32.6 13.4L753.9 807l-39.7-11.1c-11.5-3.2-22.5-7.7-32.6-13.4l-35.9-20.3-20.3-35.9c-5.7-10.1-10.2-21-13.4-32.6L601 654.1l11.1-39.7c3.2-11.5 7.7-22.5 13.4-32.6l20.3-35.9 35.9-20.3c10.1-5.7 21-10.2 32.6-13.4l39.7-11.1 39.7 11.1c11.5 3.2 22.5 7.7 32.6 13.4l35.9 20.3 20.3 35.9c5.7 10.1 10.2 21 13.4 32.6l11.1 39.7L895.8 693.8z" p-id="9131"></path><path d="M753.9 552.8c-55.9 0-101.3 45.3-101.3 101.3 0 55.9 45.3 101.3 101.3 101.3 55.9 0 101.3-45.3 101.3-101.3C855.2 598.1 809.9 552.8 753.9 552.8zM753.9 691.3c-20.6 0-37.3-16.7-37.3-37.3s16.7-37.3 37.3-37.3 37.3 16.7 37.3 37.3S774.5 691.3 753.9 691.3z" p-id="9132"></path><path d="M672 923.5c-17.7 0-32 14.3-32 32l0 4.5L64 960 64 798.5c0-157.5 123.2-283.9 280.5-287.9 5-0.1 10-0.1 14.9 0 37.1 0.9 73 8.8 106.8 23.5 16.2 7 35.1-0.4 42.1-16.7 7-16.2-0.4-35.1-16.7-42.1-4.8-2.1-9.6-4-14.4-5.9 75.4-43.4 126.2-124.8 126.2-218C603.4 112.6 490.9 0 352 0S100.6 112.6 100.6 251.4c0 93.2 50.7 174.6 126.1 218-47.2 17.9-90.3 46.1-126.5 83.2C35.6 618.7 0 706.1 0 798.5l0 169.7C0 999 25 1024 55.7 1024l592.5 0c30.7 0 55.7-25 55.7-55.7l0-12.8C704 937.8 689.7 923.5 672 923.5zM164.6 251.4c0-50.1 19.5-97.1 54.9-132.5C254.9 83.5 301.9 64 352 64c50.1 0 97.1 19.5 132.5 54.9 35.4 35.4 54.9 82.5 54.9 132.5 0 50.1-19.5 97.1-54.9 132.5-35.4 35.4-82.5 54.9-132.5 54.9-50.1 0-97.1-19.5-132.5-54.9C184.1 348.6 164.6 301.5 164.6 251.4z" p-id="9133"></path></svg>