<?xml version="1.0" standalone="no"?><!DOCTYPE svg PUBLIC "-//W3C//DTD SVG 1.1//EN" "http://www.w3.org/Graphics/SVG/1.1/DTD/svg11.dtd"><svg t="1561518276730" class="icon" viewBox="0 0 1280 1024" version="1.1" xmlns="http://www.w3.org/2000/svg" p-id="10611" xmlns:xlink="http://www.w3.org/1999/xlink" width="250" height="200"><defs><style type="text/css"></style></defs><path d="M0.00128 64c0-35.328 29.12-64 63.488-64h1153.024c35.072 0 63.488 28.48 63.488 64v896c0 35.328-29.12 64-63.488 64H63.48928A63.616 63.616 0 0 1 0.00128 960V64z m0 128v64h1280V192H0.00128z m284.608 305.664a32 32 0 1 0-57.216 28.672l128 256a32 32 0 0 0 57.216 0l128-256a32 32 0 1 0-57.216-28.672L384.00128 696.448 284.60928 497.664zM608.00128 512v256a32 32 0 0 0 64 0V512a32 32 0 0 0-64 0z m256 160H960.00128c13.184-0.32 29.568-3.392 46.592-12.16 30.272-15.488 49.408-43.968 49.408-83.84s-19.2-68.352-49.408-83.84a107.776 107.776 0 0 0-45.76-12.16H832.00128a32 32 0 0 0-32 32v256a32 32 0 0 0 64 0v-96z m95.168-64H864.00128v-64H960.00128a48.448 48.448 0 0 1 17.408 5.12c9.728 4.992 14.592 12.16 14.592 26.88 0 14.72-4.864 21.888-14.592 26.88a47.808 47.808 0 0 1-18.24 5.12z" p-id="10612"></path></svg>