<?xml version="1.0" standalone="no"?><!DOCTYPE svg PUBLIC "-//W3C//DTD SVG 1.1//EN" "http://www.w3.org/Graphics/SVG/1.1/DTD/svg11.dtd"><svg t="1561515366201" class="icon" viewBox="0 0 1024 1024" version="1.1" xmlns="http://www.w3.org/2000/svg" p-id="5466" xmlns:xlink="http://www.w3.org/1999/xlink" width="200" height="200"><defs><style type="text/css"></style></defs><path d="M337.61792 248.09984c0 19.52256-15.80032 35.34336-35.32288 35.34336-19.50208 0-35.32288-15.8208-35.32288-35.34336 0-19.4816 15.8208-35.30752 35.32288-35.30752C321.81248 212.7872 337.61792 228.61824 337.61792 248.09984L337.61792 248.09984z" p-id="5467"></path><path d="M337.61792 377.6512c0 19.5328-15.80032 35.3024-35.32288 35.3024-19.50208 0-35.32288-15.77984-35.32288-35.3024 0-19.50208 15.8208-35.30752 35.32288-35.30752C321.81248 342.34368 337.61792 358.15936 337.61792 377.6512L337.61792 377.6512z" p-id="5468"></path><path d="M302.29504 507.20768 302.29504 507.20768zM266.96704 507.20768 266.96704 507.20768z" p-id="5469"></path><path d="M657.07008 280.01792 420.04992 280.01792c-17.5872 0-31.88224-14.27968-31.88224-31.91808 0-17.60256 14.29504-31.87712 31.88224-31.87712l237.02016 0c17.61792 0 31.89248 14.27968 31.89248 31.87712C688.96256 265.73824 674.70336 280.01792 657.07008 280.01792L657.07008 280.01792z" p-id="5470"></path><path d="M657.07008 409.5744 420.04992 409.5744c-17.5872 0-31.88224-14.29504-31.88224-31.91296 0-17.62304 14.29504-31.91808 31.88224-31.91808l237.02016 0c17.61792 0 31.89248 14.29504 31.89248 31.91808C688.96256 395.27936 674.70336 409.5744 657.07008 409.5744L657.07008 409.5744z" p-id="5471"></path><path d="M657.07008 539.1104 420.04992 539.1104c-17.5872 0-31.88224-14.28992-31.88224-31.89248 0-17.65376 14.29504-31.91808 31.88224-31.91808l237.02016 0c17.61792 0 31.89248 14.26432 31.89248 31.91808C688.96256 524.81536 674.70336 539.1104 657.07008 539.1104L657.07008 539.1104z" p-id="5472"></path><path d="M302.29504 628.70528 302.29504 628.70528zM266.96704 628.70528 266.96704 628.70528z" p-id="5473"></path><path d="M657.07008 660.61824 420.04992 660.61824c-17.5872 0-31.88224-14.2848-31.88224-31.91296 0-17.62304 14.29504-31.88736 31.88224-31.88736l237.02016 0c17.61792 0 31.89248 14.2592 31.89248 31.88736C688.96256 646.33344 674.70336 660.61824 657.07008 660.61824L657.07008 660.61824z" p-id="5474"></path><path d="M991.0528 231.30112c0-115.24608-42.55744-157.7984-95.08352-157.7984L249.25696 73.50272c-54.016 0-97.9968 43.93984-97.9968 98.00704l0 616.0896-0.18432 0L55.9872 787.59936c0 143.88736 53.10464 165.64224 118.67136 165.64224l74.5984 0 416.88576 0 75.81184 0c54.05696 0 98.0224-43.93984 98.0224-98.00704L839.97696 231.30112 991.0528 231.30112 991.0528 231.30112zM800.74752 855.2192c0 32.41472-26.368 58.79296-58.79296 58.79296-52.49024 0-79.35488-11.20256-79.35488-126.44352L525.6704 787.56864 190.47936 787.56864 190.47936 171.49952c0-32.41984 26.32704-58.79808 58.76736-58.79808l577.37728 0c-15.5392 24.63232-25.22624 61.92128-25.65632 115.13856-0.12288 1.19296-0.22528 2.39104-0.22528 3.46112l0 623.91808L800.74752 855.2192 800.74752 855.2192z" p-id="5475"></path></svg>