<?xml version="1.0" standalone="no"?><!DOCTYPE svg PUBLIC "-//W3C//DTD SVG 1.1//EN" "http://www.w3.org/Graphics/SVG/1.1/DTD/svg11.dtd"><svg t="1561515303672" class="icon" viewBox="0 0 1024 1024" version="1.1" xmlns="http://www.w3.org/2000/svg" p-id="5222" xmlns:xlink="http://www.w3.org/1999/xlink" width="200" height="200"><defs><style type="text/css"></style></defs><path d="M945.92 134.336c-20.992-20.8-45.248-31.168-72.704-31.168l-215.68 0c-11.328-30.4-29.888-55.232-55.744-74.368C575.872 9.6 545.984 0 512.064 0 478.08 0 448.192 9.536 422.336 28.736c-25.856 19.2-44.48 43.968-55.744 74.368L150.784 103.104c-27.456 0-51.712 10.432-72.704 31.168C57.024 155.136 46.528 179.072 46.528 206.272l0 714.56c0 27.136 10.56 51.136 31.552 71.936C99.072 1013.632 123.328 1024 150.784 1024l722.432 0c27.456 0 51.712-10.432 72.704-31.168 21.056-20.8 31.552-44.736 31.552-71.936L977.472 206.272C977.472 179.136 966.912 155.136 945.92 134.336zM475.584 117.504C485.312 107.968 497.408 103.104 512 103.104s26.688 4.8 36.416 14.4c9.728 9.6 14.528 21.568 14.528 35.968 0 14.4-4.864 26.816-14.528 37.184C538.688 201.088 526.528 206.272 512 206.272S485.312 201.088 475.584 190.72C465.856 180.352 461.056 167.936 461.056 153.536 461.056 139.136 465.856 127.168 475.584 117.504zM616.256 820.16 252.608 820.16l0-103.168 363.584 0L616.192 820.16zM771.392 613.888 252.608 613.888 252.608 513.216l518.784 0L771.392 613.888zM771.392 410.048 252.608 410.048 252.608 306.944l518.784 0L771.392 410.048z" p-id="5223"></path></svg>