<?xml version="1.0" standalone="no"?><!DOCTYPE svg PUBLIC "-//W3C//DTD SVG 1.1//EN" "http://www.w3.org/Graphics/SVG/1.1/DTD/svg11.dtd"><svg t="1561520082307" class="icon" viewBox="0 0 1024 1024" version="1.1" xmlns="http://www.w3.org/2000/svg" p-id="25362" xmlns:xlink="http://www.w3.org/1999/xlink" width="200" height="200"><defs><style type="text/css"></style></defs><path d="M830.592 284.416C828.736 268.224 815.04 256 798.784 256L639.04 256 639.04 224c0-88.192-71.68-160-159.744-160S319.552 135.808 319.552 224L319.552 256 159.872 256C143.552 256 129.92 268.224 128.128 284.416l-63.936 576c-1.024 9.088 1.92 18.112 8 24.96C78.208 892.096 86.848 896 95.936 896l766.72 0c9.088 0 17.728-3.904 23.808-10.624 6.016-6.784 8.96-15.872 7.936-24.96L830.592 284.416zM351.424 448c-17.664 0-32-14.336-32-32S333.76 384 351.424 384s32 14.336 32 32S369.152 448 351.424 448zM575.168 256 383.488 256 383.488 224c0-52.928 43.008-96 95.808-96 52.864 0 95.872 43.072 95.872 96L575.168 256zM607.424 448c-17.664 0-32-14.336-32-32S589.76 384 607.424 384s32 14.336 32 32S625.152 448 607.424 448z" p-id="25363"></path></svg>