<?xml version="1.0" standalone="no"?><!DOCTYPE svg PUBLIC "-//W3C//DTD SVG 1.1//EN" "http://www.w3.org/Graphics/SVG/1.1/DTD/svg11.dtd"><svg t="1561519929823" class="icon" viewBox="0 0 1024 1024" version="1.1" xmlns="http://www.w3.org/2000/svg" p-id="21980" xmlns:xlink="http://www.w3.org/1999/xlink" width="200" height="200"><defs><style type="text/css"></style></defs><path d="M377.403001 555.932582 151.563416 555.932582c-49.171909 0-89.174995 40.034808-89.174995 89.228207l0 225.786373c0 49.192376 40.003086 89.228207 89.174995 89.228207l225.839585 0c49.183166 0 89.198531-40.035832 89.198531-89.228207L466.601532 645.160789C466.601532 595.96739 426.58719 555.932582 377.403001 555.932582z" p-id="21981"></path><path d="M377.403001 103.535051 151.563416 103.535051c-49.171909 0-89.174995 40.035832-89.174995 89.229231l0 225.786373c0 49.214888 40.003086 89.25072 89.174995 89.25072l225.839585 0c49.183166 0 89.198531-40.036855 89.198531-89.25072L466.601532 192.764282C466.601532 143.570883 426.58719 103.535051 377.403001 103.535051z" p-id="21982"></path><path d="M938.093956 228.482785 796.252461 86.609567c-30.444383-30.379914-83.425038-30.379914-113.825418 0L540.542568 228.482785c-31.377638 31.399127-31.377638 82.459037 0 113.814162L682.415786 484.191654c15.20019 15.21247 35.412534 23.588231 56.907081 23.609721 21.493523 0 41.718147-8.397251 56.939827-23.609721l141.831262-141.894707C969.448058 310.940798 969.448058 259.881912 938.093956 228.482785zM922.382113 326.586127 780.550851 468.480834c-22.046109 22.047132-60.409858 22.047132-82.414011 0L556.252365 326.586127c-22.717398-22.697955-22.707165-59.651588 0-82.393545L698.136839 102.319363c11.001565-11.001565 25.626657-17.055444 41.186028-17.055444 15.569604 0 30.205952 6.054903 41.227983 17.055444l141.820006 141.873218C945.080068 266.912026 945.080068 303.889195 922.382113 326.586127z" p-id="21983"></path><path d="M831.968917 555.932582 606.172311 555.932582c-49.192376 0-89.217974 40.034808-89.217974 89.228207l0 225.786373c0 49.192376 40.024575 89.228207 89.217974 89.228207l225.796606 0c49.182143 0 89.197508-40.035832 89.197508-89.228207L921.166425 645.160789C921.166425 595.96739 881.152083 555.932582 831.968917 555.932582z" p-id="21984"></path></svg>