<?xml version="1.0" standalone="no"?><!DOCTYPE svg PUBLIC "-//W3C//DTD SVG 1.1//EN" "http://www.w3.org/Graphics/SVG/1.1/DTD/svg11.dtd"><svg t="1561515730684" class="icon" viewBox="0 0 1025 1024" version="1.1" xmlns="http://www.w3.org/2000/svg" p-id="8325" xmlns:xlink="http://www.w3.org/1999/xlink" width="200.1953125" height="200"><defs><style type="text/css"></style></defs><path d="M480.544236 91.391999c-24.896-15.072-106.303999-57.631999-154.719998-84.607999-42.303999-23.52-55.135999 26.976-59.167999 61.567999-4.032 34.688-4.032 79.551999 40.319999 79.551999l162.815998 0c44.351999 0 44.351999-35.904 10.752-56.511999z" p-id="8326"></path><path d="M0.000242 267.039996l0 101.663999c-0.064 37.632 12.544 56.607999 62.783999 56.607999l371.231995 0 0-209.343997-372.191995 0c-50.847999-0.032-61.823999 16.736-61.823999 51.071999z" p-id="8327"></path><path d="M42.432241 900.927988c0.48 78.367999 46.207999 123.071998 143.871998 123.071998l245.279997 0 0-521.215993-389.151995 0c0 0-0.576 319.807996 0 398.143995z" p-id="8328"></path><path d="M1024.000229 271.359996c0-34.336-14.944-55.423999-65.759999-55.423999l-365.951995 0 0 209.343997 368.831995 0c50.239999 0 62.911999-17.376 62.879999-55.007999-0.16-34.272-0.096-64.607999 0-98.911999z" p-id="8329"></path><path d="M767.360232 67.615999c-4.032-34.592-16.864-85.087999-59.199999-61.567999-48.479999 26.976-129.823998 69.535999-154.719998 84.703999-33.664 20.512-33.664 56.415999 10.784 56.415999l162.783998 0c44.383999 0 44.383999-44.895999 40.351999-79.551999z" p-id="8330"></path><path d="M592.288234 502.783993l0 521.215993 237.791997 0c97.599999 0 141.567998-49.055999 142.111998-127.359998 0.576-78.367999-0.16-393.855995-0.16-393.855995l-379.743995 0z" p-id="8331"></path></svg>