<?xml version="1.0" standalone="no"?><!DOCTYPE svg PUBLIC "-//W3C//DTD SVG 1.1//EN" "http://www.w3.org/Graphics/SVG/1.1/DTD/svg11.dtd"><svg t="1560680573149" class="icon" style="" viewBox="0 0 1029 1024" version="1.1" xmlns="http://www.w3.org/2000/svg" p-id="4099" xmlns:xlink="http://www.w3.org/1999/xlink" width="200.9765625" height="200"><defs><style type="text/css"></style></defs><path d="M858.016 645.632c-30.496 24.992-68.512 42.944-117.12 58.144-14.048 4.384-28.544 8.448-46.272 13.056-6.56 1.696-34.656 8.8-41.632 10.624a32 32 0 0 1-16.224-61.92c7.328-1.92 35.52-9.024 41.792-10.656a897.6 897.6 0 0 0 43.264-12.192c41.44-12.96 72.576-27.648 95.68-46.56 84.16-68.96 160.224-55.52 203.552 38.592l8.48 18.432-13.024 15.52C872.288 840.576 748.128 928 640 928l-548.256 15.2a32 32 0 0 1 0-64L640 864c80.96 0 186.72-72.512 313.664-220.16-22.72-37.312-49.088-36.32-95.648 1.792zM93.12 790.208a32 32 0 1 1-64-1.088L32.224 608l8.416-8.96c85.152-90.944 169.44-131.904 252.416-118.624 62.72 10.016 98.176 29.568 147.424 71.584l6.944 5.952c21.312 18.208 32.736 26.784 47.616 34.688 11.264 6.016 26.016 9.6 45.888 11.52 9.024 0.928 15.808 1.28 33.536 2.016 73.28 3.104 102.4 13.056 102.4 65.824 0 72-47.36 117.696-132.32 132.032-55.936 9.44-137.024-12.32-246.56-63.616a32 32 0 1 1 27.168-57.952c98.56 46.176 169.248 65.12 208.736 58.464 55.296-9.344 78.016-30.336 78.944-66.56-6.848-2.24-17.184-3.2-41.056-4.224a602.56 602.56 0 0 1-37.056-2.24c-27.488-2.688-49.856-8.16-69.76-18.784-20.096-10.688-34.496-21.472-59.104-42.528l-6.912-5.888c-41.088-35.072-66.784-49.248-116-57.12-56.224-8.96-118.464 19.84-187.168 90.368l-2.656 156.256zM224 369.728a32 32 0 1 1-64 0V224a64 64 0 0 1 64-64h608a64 64 0 0 1 64 64v192a64 64 0 0 1-64 64H489.44a32 32 0 1 1 0-64H832V224H224v145.728z" p-id="4100"></path></svg>