<?xml version="1.0" standalone="no"?><!DOCTYPE svg PUBLIC "-//W3C//DTD SVG 1.1//EN" "http://www.w3.org/Graphics/SVG/1.1/DTD/svg11.dtd"><svg t="1561522564004" class="icon" viewBox="0 0 1024 1024" version="1.1" xmlns="http://www.w3.org/2000/svg" p-id="41003" xmlns:xlink="http://www.w3.org/1999/xlink" width="200" height="200"><defs><style type="text/css"></style></defs><path d="M687.445333 74.410667c40.96 16.384 79.872 38.912 114.688 66.218666-44.373333 60.074667-51.2 143.36-12.970666 210.261334 34.133333 58.709333 97.621333 95.573333 165.205333 95.573333 7.509333 0 15.018667-0.682667 23.210667-1.365333 3.413333 21.845333 4.778667 44.373333 4.778666 66.218666s-1.365333 44.373333-4.778666 66.218667c-7.509333-0.682667-15.018667-1.365333-23.210667-1.365333-68.266667 0-131.754667 36.864-165.205333 95.573333-38.912 66.901333-32.085333 150.186667 12.970666 210.261333-34.816 27.306667-73.728 49.834667-114.688 66.218667-29.354667-68.949333-98.304-116.053333-175.445333-116.053333-77.141333 0-146.090667 47.786667-175.445333 116.053333-40.96-16.384-79.872-38.912-114.688-66.218667 44.373333-60.074667 51.2-143.36 12.970666-210.261333-34.133333-58.709333-97.621333-95.573333-165.205333-95.573333-7.509333 0-15.018667 0.682667-23.210667 1.365333-3.413333-21.845333-4.778667-44.373333-4.778666-66.218667s1.365333-44.373333 4.778666-66.218666c7.509333 0.682667 15.018667 1.365333 23.210667 1.365333 68.266667 0 131.754667-36.864 165.205333-95.573333 38.912-66.901333 32.085333-150.186667-12.970666-210.261334 34.816-27.306667 73.728-49.834667 114.688-66.218666 29.354667 68.949333 98.304 116.053333 175.445333 116.053333 77.141333 0 146.090667-47.786667 175.445333-116.053333m-26.624-53.248c-10.922667 72.362667-73.045333 128.341333-148.821333 128.341333s-137.898667-55.978667-148.821333-128.341333c-76.458667 23.210667-144.725333 63.488-201.386667 116.736 57.344 45.738667 74.410667 126.976 36.864 192.512-27.989333 48.469333-78.506667 75.093333-129.706667 75.093333-18.432 0-37.546667-3.413333-55.296-10.24a505.890133 505.890133 0 0 0 0 233.472c17.749333-6.826667 36.864-10.24 55.296-10.24 51.882667 0 102.4 26.624 129.706667 75.093333 37.546667 65.536 20.48 146.773333-36.864 192.512 56.661333 53.248 125.610667 93.525333 201.386667 116.736 10.922667-72.362667 73.045333-128.341333 148.821333-128.341333s137.898667 55.978667 148.821333 128.341333c76.458667-23.210667 144.725333-63.488 201.386667-116.736-57.344-45.738667-74.410667-126.976-36.864-192.512 27.989333-48.469333 78.506667-75.093333 129.706667-75.093333 18.432 0 37.546667 3.413333 55.296 10.24a505.890133 505.890133 0 0 0 0-233.472c-17.749333 6.826667-36.864 10.24-55.296 10.24-51.882667 0-102.4-26.624-129.706667-75.093333-37.546667-65.536-20.48-146.773333 36.864-192.512a514.389333 514.389333 0 0 0-201.386667-116.736z" p-id="41004"></path><path d="M518.144 698.368c-103.082667 0-187.050667-83.968-187.050667-187.050667s83.968-187.050667 187.050667-187.050666c103.082667 0 187.050667 83.968 187.050667 187.050666s-83.968 187.050667-187.050667 187.050667z m0-333.141333c-80.554667 0-146.090667 65.536-146.090667 146.090666s65.536 146.090667 146.090667 146.090667c80.554667 0 146.090667-65.536 146.090667-146.090667s-65.536-146.090667-146.090667-146.090666z" p-id="41005"></path></svg>